<?xml version="1.0" encoding="UTF-8"?>
<svg version="1.1" xmlns="http://www.w3.org/2000/svg" width="512" height="512">
<path d="M0 0 C4.93996619 3.6425398 9.59291624 7.52112208 13 12.6875 C13 13.3475 13 14.0075 13 14.6875 C13.93513428 14.66393433 13.93513428 14.66393433 14.88916016 14.63989258 C41.5692063 14.05732662 63.81807762 18.89065865 83.91796875 37.578125 C101.49138799 55.38233962 110.76351781 79.91921619 112 104.6875 C112.04125 105.42097656 112.0825 106.15445313 112.125 106.91015625 C112.58311015 122.68632447 107.66090058 136.66600679 99 149.6875 C98.48050781 150.13351563 97.96101562 150.57953125 97.42578125 151.0390625 C95.08791518 153.74201998 94.61128116 157.16908944 93.75 160.5625 C88.47566182 179.70255498 76.61933475 195.54827373 59.59375 205.91015625 C58 206.6875 58 206.6875 56 206.6875 C56 209.6575 56 212.6275 56 215.6875 C57.01449219 215.79191406 58.02898437 215.89632812 59.07421875 216.00390625 C70.28652614 217.95629808 80.17325105 224.73119478 87 233.6875 C92.82739311 242.81930504 96.04505023 251.87544549 96 262.6875 C96.80630859 262.67178955 97.61261719 262.6560791 98.44335938 262.63989258 C102.1288337 262.57718024 105.81419535 262.5383938 109.5 262.5 C111.40265625 262.46229492 111.40265625 262.46229492 113.34375 262.42382812 C123.06824216 262.34785553 130.10312274 263.25474964 137.4609375 270.0078125 C143.33581703 276.41948305 144.15025836 282.88304034 144.12939453 291.26391602 C144.13202301 292.55966553 144.13202301 292.55966553 144.13470459 293.8815918 C144.1391033 296.73488376 144.13619232 299.58811367 144.1328125 302.44140625 C144.13348605 304.42390454 144.1344565 306.40640275 144.13571167 308.38890076 C144.13718591 312.54239692 144.13504263 316.69587157 144.13037109 320.84936523 C144.12467026 326.17822002 144.1279568 331.50702448 144.13394356 336.83587742 C144.13755338 340.92873007 144.1364087 345.02157074 144.13381577 349.11442375 C144.13314786 351.07966048 144.13397019 353.04489828 144.13629532 355.01013374 C144.13882911 357.7536114 144.13497108 360.49700698 144.12939453 363.24047852 C144.13141876 364.05562424 144.13344299 364.87076996 144.13552856 365.71061707 C144.1232517 368.96376584 144.03619553 371.57891341 143 374.6875 C148.61 374.6875 154.22 374.6875 160 374.6875 C159.99111755 373.17319397 159.98223511 371.65888794 159.9730835 370.09869385 C159.89184811 355.79836495 159.83172197 341.49811829 159.79275131 327.19762039 C159.77218287 319.84633322 159.74417276 312.49521905 159.69824219 305.14404297 C159.65819807 298.73189919 159.63252569 292.31988079 159.62364602 285.90761542 C159.61846073 282.51670531 159.60639545 279.12615367 159.57707977 275.73535919 C159.54786471 271.93696708 159.54405172 268.13930745 159.54589844 264.34082031 C159.53151733 263.23382278 159.51713623 262.12682526 159.50231934 260.98628235 C159.56712849 248.59366728 163.16722675 238.62070003 171.86143494 229.79870605 C177.77835774 224.27566016 183.99617976 220.72744001 191.25390625 217.21875 C192.39536606 216.65297241 193.53682587 216.08719482 194.71287537 215.50427246 C197.71151245 214.02109192 200.71558597 212.55035566 203.72320557 211.08557129 C206.80564844 209.58050859 209.87997565 208.05905051 212.95507812 206.5390625 C218.96280714 203.57357198 224.97893505 200.62581271 231 197.6875 C231 194.0575 231 190.4275 231 186.6875 C230.09378906 186.26339844 229.18757813 185.83929688 228.25390625 185.40234375 C220.83440543 181.86049923 214.17121362 178.20911219 208 172.6875 C207.25234375 172.03265625 206.5046875 171.3778125 205.734375 170.703125 C192.67681856 158.5338377 184.7915216 141.27061882 183.82516479 123.46630859 C183.77040344 119.95108388 183.77474359 116.44129806 183.8046875 112.92578125 C183.80893234 111.01807198 183.80893234 111.01807198 183.81326294 109.07182312 C183.82249017 105.72962494 183.84038274 102.38771287 183.8626709 99.04559326 C183.8833198 95.61961303 183.8923049 92.19360296 183.90234375 88.76757812 C183.92428174 82.0741414 183.95766657 75.38083717 184 68.6875 C183.0514917 68.39182129 182.1029834 68.09614258 181.12573242 67.79150391 C175.74987301 65.89275859 172.69237707 61.61340542 169.890625 56.76953125 C165.49839916 46.72127874 168.19850109 35.89449327 171.99609375 26.125 C177.67847041 13.5411901 187.39676076 5.41494135 200.12890625 0.55444336 C208.6729944 -2.20938441 217.24220721 -1.87029464 226.125 -1.80859375 C227.96240293 -1.80874911 229.79980617 -1.81024412 231.63720703 -1.81300354 C235.46987571 -1.81438048 239.30216697 -1.80194842 243.13476562 -1.77905273 C248.01652011 -1.75067044 252.89764866 -1.75341504 257.77944946 -1.76614285 C261.56816842 -1.77313959 265.3567459 -1.76526541 269.14544678 -1.75288582 C270.94414729 -1.74841003 272.7428632 -1.74800013 274.54156494 -1.75195122 C294.47557294 -1.7752505 311.17154565 2.3907619 325.98852539 16.40820312 C340.652282 31.09462397 344.31752194 48.69925558 344.3359375 68.5859375 C344.34237749 70.22824211 344.34910671 71.8705456 344.35610962 73.5128479 C344.36803481 76.94381365 344.37179528 80.37467907 344.37060547 83.80566406 C344.37040233 88.17537999 344.39772087 92.54444526 344.43214989 96.91400719 C344.4545184 100.30291632 344.45844001 103.69167116 344.45738602 107.08064651 C344.45972639 108.69040802 344.46846044 110.30017481 344.48405075 111.90986252 C344.59741832 124.82079223 343.10865281 135.85816258 334 145.6875 C329.94840574 149.65453925 326.13149011 153.22314922 321 155.6875 C320.92564778 160.43803511 320.87130309 165.18822887 320.83520508 169.93920898 C320.82015124 171.55417789 320.79970352 173.16910613 320.77368164 174.78393555 C320.73714714 177.10996555 320.72023985 179.43545341 320.70703125 181.76171875 C320.69154739 182.47962082 320.67606354 183.19752289 320.66011047 183.93717957 C320.65861901 188.41518641 321.0199298 191.28675257 324 194.6875 C326.62883115 196.42406601 329.40490741 197.74984343 332.25390625 199.0859375 C333.06939438 199.4839859 333.88488251 199.8820343 334.7250824 200.29214478 C337.33124351 201.56247907 339.94588698 202.81385372 342.5625 204.0625 C375.51167639 219.87662671 375.51167639 219.87662671 383 237.6875 C383.99937666 240.91856615 384.10294817 243.81264413 384.0625 247.18701172 C384.04884399 248.83925247 384.04884399 248.83925247 384.03491211 250.52487183 C384.01763062 252.30306808 384.01763062 252.30306808 384 254.1171875 C383.99884185 256.62890632 384.00022265 259.14062736 384.00390625 261.65234375 C384.00833051 265.61205315 383.99991083 269.56939839 383.94873047 273.52880859 C383.90350443 277.35112257 383.91537717 281.16974516 383.9375 284.9921875 C383.89592773 286.76431107 383.89592773 286.76431107 383.85351562 288.57223511 C383.82152167 294.7266714 383.82152167 294.7266714 386.97583008 299.71612549 C389.25687578 301.23192198 391.5596761 302.45251813 394 303.6875 C400.64780616 309.74439005 406.08006767 316.75863422 408 325.6875 C408.11018539 328.6708337 408.16755142 331.63146715 408.17700195 334.61523438 C408.18685875 335.96709587 408.18685875 335.96709587 408.19691467 337.3462677 C408.21660526 340.324596 408.22829779 343.3028741 408.23828125 346.28125 C408.24235678 347.2986174 408.2464323 348.3159848 408.25063133 349.36418152 C408.27146903 354.74392493 408.28578349 360.12364296 408.29516602 365.50341797 C408.3062554 371.06550481 408.34069098 376.62719434 408.38033772 382.18914032 C408.40643905 386.46304077 408.41485183 390.73684533 408.41844749 395.01081848 C408.42332637 397.06177977 408.43497716 399.11273642 408.45348549 401.16362 C408.47775001 404.02932672 408.47693576 406.89398833 408.4699707 409.75976562 C408.48278076 410.60871902 408.49559082 411.45767242 408.50878906 412.33235168 C408.47509687 416.12784189 408.44386036 418.06713313 406.18937683 421.21813965 C402.99677459 423.36079645 400.75761147 423.15720143 397 422.6875 C394.5625 421.4375 394.5625 421.4375 393 419.6875 C393 418.3675 393 417.0475 393 415.6875 C339.87 415.6875 286.74 415.6875 232 415.6875 C231.67 417.0075 231.34 418.3275 231 419.6875 C229.9375 421.4375 229.9375 421.4375 228 422.6875 C222.91655969 423.33301623 222.91655969 423.33301623 220 422.6875 C217.5 420.3125 217.5 420.3125 216 417.6875 C216 417.0275 216 416.3675 216 415.6875 C202.8 415.6875 189.6 415.6875 176 415.6875 C175.67 417.0075 175.34 418.3275 175 419.6875 C173.9375 421.4375 173.9375 421.4375 172 422.6875 C166.42607683 423.39529977 166.42607683 423.39529977 164 422.6875 C161.37607197 420.02031204 160.10313968 418.37936762 159.54589844 414.64135742 C159.57731934 412.98390503 159.57731934 412.98390503 159.609375 411.29296875 C159.62871094 409.48989258 159.62871094 409.48989258 159.6484375 407.65039062 C159.69871094 405.78157227 159.69871094 405.78157227 159.75 403.875 C159.76804687 402.60978516 159.78609375 401.34457031 159.8046875 400.04101562 C159.85176084 396.92240665 159.91750906 393.80534027 160 390.6875 C159.45136677 390.68901888 158.90273354 390.69053776 158.33747506 390.69210267 C125.83729445 390.78157114 93.33714637 390.85022401 60.83687104 390.89176132 C56.93649455 390.89676428 53.03611831 390.90194156 49.13574219 390.90722656 C48.35923159 390.9082758 47.58272099 390.90932505 46.78267977 390.91040608 C34.2014828 390.92782205 21.62035877 390.95936626 9.0392051 390.99611118 C-3.86555127 391.03348752 -16.77026939 391.05572884 -29.67507768 391.06385398 C-37.64119123 391.06934864 -45.60709864 391.08671691 -53.57314876 391.11916587 C-59.67653958 391.14276442 -65.77975222 391.14532823 -71.88319397 391.13993073 C-74.39066591 391.14103455 -76.89814539 391.14903569 -79.40557098 391.1643219 C-82.82013087 391.18412376 -86.23379737 391.17947436 -89.64837646 391.16851807 C-90.64837166 391.18016943 -91.64836685 391.1918208 -92.67866492 391.20382524 C-99.37037136 391.14549412 -99.37037136 391.14549412 -102.61597061 388.78463364 C-104.97485186 385.21036762 -104.4687289 382.90606012 -104 378.6875 C-102.18836733 376.01318511 -101.12238923 375.72829641 -98 374.6875 C-96.27204648 374.61947033 -94.54164635 374.60254355 -92.8125 374.625 C-91.91144531 374.63402344 -91.01039062 374.64304687 -90.08203125 374.65234375 C-89.05142578 374.66974609 -89.05142578 374.66974609 -88 374.6875 C-88.00666183 373.46133972 -88.01332367 372.23517944 -88.02018738 370.97186279 C-88.08117622 359.37930681 -88.12605775 347.78678366 -88.15543652 336.19410324 C-88.1710485 330.23512806 -88.19220486 324.27628308 -88.22631836 318.31738281 C-88.25907146 312.5596515 -88.27688657 306.80204493 -88.28463173 301.0442276 C-88.2901467 298.85474944 -88.30091562 296.66527759 -88.31719017 294.47585297 C-88.41869182 280.24638139 -88.07129684 267.51939725 -81.375 254.625 C-81.03017578 253.95090088 -80.68535156 253.27680176 -80.33007812 252.58227539 C-71.48501923 235.90648101 -56.60567247 223.31233786 -38.5625 217.75 C-34.08702983 216.40234747 -29.62877206 215.36714968 -25 214.6875 C-23.83976855 204.18610105 -23.83976855 204.18610105 -26.3125 194.28515625 C-28.04584363 192.65259512 -28.04584363 192.65259512 -30 191.2265625 C-38.09128034 185.00006942 -42.66035822 173.35693528 -45.94140625 164.00390625 C-47.14925422 161.36090313 -48.35754497 160.2261697 -50.625 158.4375 C-63.87510406 147.27572755 -71.47576617 133.06376562 -73 115.6875 C-73.26867078 110.24691678 -73.28532204 104.97122629 -72.3046875 99.6015625 C-70.6566608 92.3673148 -70.6566608 92.3673148 -72.21484375 85.46484375 C-73.98277532 83.77510038 -73.98277532 83.77510038 -75.98828125 82.30078125 C-83.74746853 76.07836504 -86.81963113 64.39261619 -88.75 55.0625 C-90.05278363 37.47492094 -85.97937919 21.49245921 -74.375 7.8125 C-54.61266009 -12.48799743 -23.44511989 -15.86659216 0 0 Z " fill="#020202" transform="translate(104,49.3125)"/>
<path d="M0 0 C2.03515625 -0.3203125 2.03515625 -0.3203125 5.72265625 0.6171875 C7.66080619 3.17243707 9.17007356 5.85621908 10.74609375 8.6484375 C15.50100948 15.79020816 23.51831935 20.41577536 31.72265625 22.6171875 C43.93081814 24.34151171 55.43589988 23.01554504 65.49609375 15.5625 C70.7246954 11.13122177 74.4477871 6.62111427 77.72265625 0.6171875 C86.15056695 1.15513925 92.27814585 4.74635117 98.03515625 10.8671875 C102.80037776 16.61208529 105.82432292 21.72218738 105.75976562 29.27539062 C105.75440796 30.08786255 105.74905029 30.90033447 105.74353027 31.73742676 C105.73664185 32.3577478 105.72975342 32.97806885 105.72265625 33.6171875 C104.89108253 33.62077003 104.89108253 33.62077003 104.04270935 33.62442493 C90.52889855 33.68366209 77.01526695 33.75945458 63.50164795 33.85290241 C56.96644325 33.89759689 50.43130076 33.93685534 43.89599609 33.96362305 C37.58703907 33.98966479 31.27832156 34.0300741 24.96951294 34.08037376 C22.5646564 34.09703644 20.15975844 34.10855443 17.75485229 34.11480141 C14.38188673 34.12444865 11.00953312 34.15251688 7.63671875 34.18481445 C6.15101631 34.18266182 6.15101631 34.18266182 4.63529968 34.1804657 C-2.30806655 34.2742629 -8.25287485 35.05359005 -13.73828125 39.703125 C-14.36992188 40.45851563 -15.0015625 41.21390625 -15.65234375 41.9921875 C-16.29945312 42.74242187 -16.9465625 43.49265625 -17.61328125 44.265625 C-21.11805723 49.21838355 -21.53073954 53.14722739 -21.46484375 59.1796875 C-21.45839844 60.48035156 -21.45195313 61.78101563 -21.4453125 63.12109375 C-21.31456838 65.84239585 -21.09558197 68.04464653 -20.27734375 70.6171875 C-18.6531563 70.69809721 -17.0278263 70.75633745 -15.40234375 70.8046875 C-14.49742188 70.83949219 -13.5925 70.87429688 -12.66015625 70.91015625 C-11.87382813 70.81347656 -11.0875 70.71679688 -10.27734375 70.6171875 C-7.50696126 66.46161376 -7.98810171 62.84508036 -7.9140625 57.94140625 C-7.28059716 54.63417309 -6.49117575 52.426582 -4.24694824 49.88675499 C0.43624831 46.86806057 6.68434378 47.80116097 12.07226562 47.85668945 C13.55256945 47.85019355 15.0328639 47.84113059 16.51313782 47.82969666 C20.52783965 47.80663149 24.54158988 47.82132433 28.55626106 47.84416604 C32.75932277 47.86309163 36.96232098 47.85192221 41.16540527 47.84526062 C48.2235423 47.83892139 55.28129837 47.85718261 62.33935547 47.88989258 C70.49717083 47.92738687 78.65426454 47.92560819 86.81211805 47.9028514 C94.66266261 47.88189625 102.51294068 47.88917975 110.36347961 47.90917015 C113.70314656 47.91715273 117.04258788 47.91516888 120.38224792 47.90514565 C124.31581194 47.89458811 128.24853585 47.90873837 132.18196678 47.94188881 C133.62469893 47.95009114 135.06750813 47.94981761 136.51023293 47.94041061 C138.48098533 47.92897287 140.45184731 47.95142387 142.42248535 47.97554016 C143.52490822 47.97872411 144.62733109 47.98190805 145.76316071 47.98518848 C149.72395644 48.83101473 151.2347634 50.48372804 153.72265625 53.6171875 C154.21217667 56.63853052 154.39843208 59.09216935 154.35375977 62.10766602 C154.36449272 63.37196442 154.36449272 63.37196442 154.3754425 64.6618042 C154.3923149 67.44045649 154.37293777 70.21749221 154.3515625 72.99609375 C154.35239126 74.92992791 154.3548509 76.863762 154.35887146 78.79759216 C154.36172836 82.84696703 154.3470374 86.89578845 154.31958008 90.94506836 C154.28547472 96.13620864 154.29152413 101.32636078 154.31024265 106.51754856 C154.32080863 110.50929506 154.31187886 114.50081145 154.29685783 118.49253654 C154.29167415 120.40670018 154.29216009 122.32088782 154.29840279 124.23504829 C154.30385105 126.90925965 154.28349396 129.58205366 154.25610352 132.25610352 C154.26589233 133.4430204 154.26589233 133.4430204 154.27587891 134.65391541 C154.21445797 138.17909288 154.02162618 140.21873146 151.8768158 143.07725525 C148.20091808 145.70502414 145.1703231 145.74846444 140.77688599 145.77108765 C139.53469299 145.77968811 138.2925 145.78828857 137.01266479 145.79714966 C135.63360638 145.80158471 134.25454751 145.80588309 132.87548828 145.81005859 C131.42504684 145.81796103 129.97460735 145.82623007 128.52416992 145.83483887 C123.75962191 145.86103684 118.9950652 145.87636161 114.23046875 145.890625 C112.59023915 145.89598509 110.95000961 145.9013626 109.30978012 145.90675735 C102.48816502 145.92838043 95.66655227 145.94711821 88.84491158 145.95837975 C79.06723028 145.97462773 69.2899458 146.00783227 59.5124141 146.06478059 C52.63759767 146.10345871 45.76288748 146.12300973 38.88796508 146.12830031 C34.78133212 146.13195597 30.67512259 146.14399978 26.56860733 146.17640305 C22.70578474 146.20644765 18.84364261 146.21280891 14.98072815 146.20101929 C13.56374959 146.20079826 12.14673978 146.20912749 10.72986984 146.22667313 C-1.32116573 146.36777416 -1.32116573 146.36777416 -4.59646606 143.20571899 C-6.75669575 139.87899116 -7.4027372 138.21754826 -7.43505859 134.30688477 C-7.44532074 133.41578506 -7.45558289 132.52468536 -7.46615601 131.60658264 C-7.477108 130.15970314 -7.477108 130.15970314 -7.48828125 128.68359375 C-7.51634382 126.65298665 -7.54500824 124.62238779 -7.57421875 122.59179688 C-7.61554229 119.38110531 -7.65241842 116.17056868 -7.67871094 112.9597168 C-7.70624717 109.86735023 -7.75211308 106.7756901 -7.80078125 103.68359375 C-7.80403412 102.72103165 -7.80728699 101.75846954 -7.81063843 100.76673889 C-7.8272049 99.87248703 -7.84377136 98.97823517 -7.86083984 98.05688477 C-7.87297012 96.87679588 -7.87297012 96.87679588 -7.88534546 95.67286682 C-8.38206966 93.06799406 -9.15662381 92.1781822 -11.27734375 90.6171875 C-15.89474001 90.02586878 -15.89474001 90.02586878 -19.97381592 91.85464478 C-21.64480089 94.11403835 -21.64631661 95.39843141 -21.63378906 98.19287109 C-21.63679016 99.11748138 -21.63979126 100.04209167 -21.6428833 100.99472046 C-21.6305365 101.99161896 -21.6181897 102.98851746 -21.60546875 104.015625 C-21.60359558 105.0427359 -21.60172241 106.0698468 -21.59979248 107.12808228 C-21.59306708 109.30189251 -21.57914298 111.47569055 -21.55859375 113.64941406 C-21.52753135 116.97212006 -21.51763127 120.2943509 -21.51171875 123.6171875 C-21.50254465 125.72917243 -21.4921676 127.84115255 -21.48046875 129.953125 C-21.47621887 130.94597504 -21.47196899 131.93882507 -21.46759033 132.96176147 C-21.45798279 133.89267609 -21.44837524 134.8235907 -21.43847656 135.78271484 C-21.43164856 136.59751312 -21.42482056 137.4123114 -21.41778564 138.25180054 C-21.30442572 141.07827385 -21.30442572 141.07827385 -20.27734375 145.6171875 C-29.18734375 145.6171875 -38.09734375 145.6171875 -47.27734375 145.6171875 C-47.36799735 133.06410495 -47.4412627 120.51124264 -47.48459244 107.95790577 C-47.5053968 102.12781853 -47.5335831 96.2979684 -47.57910156 90.46801758 C-47.62281515 84.83346438 -47.64653454 79.19913812 -47.65685272 73.56442833 C-47.6641985 71.42320882 -47.67854213 69.28200061 -47.70026398 67.14087868 C-47.89232296 47.41078841 -45.1064171 30.97732711 -30.953125 16.0390625 C-21.78619056 7.74198315 -11.85253277 3.21217869 0 0 Z " fill="#EBE9EB" transform="translate(78.27734375,279.3828125)"/>
<path d="M0 0 C0.73247955 -0.0065712 1.46495911 -0.0131424 2.21963501 -0.01991272 C4.63462446 -0.03955872 7.04955183 -0.05129169 9.46459961 -0.0612793 C10.29454374 -0.06535482 11.12448788 -0.06943035 11.97958183 -0.07362938 C16.37652203 -0.09445773 20.77343137 -0.1087708 25.17041016 -0.11816406 C29.68358691 -0.12919402 34.19626597 -0.16356342 38.70926762 -0.20333576 C42.20371842 -0.22964437 45.69805343 -0.23786866 49.19259453 -0.24144554 C50.85457134 -0.24627841 52.51654415 -0.25779669 54.17842293 -0.27648354 C70.42696304 -0.44776688 84.4039585 2.95222855 96.70678711 14.2277832 C108.3482529 26.50916043 110.87373351 40.17355989 110.89038086 56.48168945 C110.89682056 57.97087731 110.90354976 59.46006395 110.91055298 60.94924927 C110.92248003 64.06084117 110.92623847 67.17232242 110.92504883 70.28393555 C110.92484571 74.24688233 110.95215985 78.20911142 110.98659325 82.17188835 C111.00896289 85.24507835 111.01288334 88.31809821 111.01182938 91.39136124 C111.01416976 92.85123291 111.0229039 94.31111042 111.03849411 95.77090073 C111.13185395 105.4135587 110.69429523 114.05863963 104.40600586 121.83325195 C99.35414696 126.01654564 95.57384911 128.47282699 89.03491211 129.6184082 C88.13385742 129.78211914 87.23280273 129.94583008 86.30444336 130.11450195 C85.45366211 130.24727539 84.60288086 130.38004883 83.72631836 130.5168457 C81.18935182 131.0369718 81.18935182 131.0369718 79.55444336 134.17700195 C79.09586801 138.33102319 79.09586801 138.33102319 80.80444336 141.98950195 C82.72161736 143.29044145 84.31314137 143.67224593 86.55444336 144.17700195 C86.59202759 145.82684082 86.59202759 145.82684082 86.63037109 147.51000977 C86.72462542 151.59524961 86.82480201 155.68032657 86.92675781 159.76538086 C86.9700385 161.53259467 87.01171841 163.29984845 87.05175781 165.06713867 C87.10962687 167.60909055 87.17327317 170.15084254 87.23803711 172.69262695 C87.2547496 173.48131165 87.2714621 174.26999634 87.28868103 175.08258057 C87.3848463 178.65271314 87.68292851 181.69094256 88.55444336 185.17700195 C69.08444336 185.17700195 49.61444336 185.17700195 29.55444336 185.17700195 C29.05944336 174.78200195 29.05944336 174.78200195 28.55444336 164.17700195 C25.39680436 161.01936295 23.68706212 160.33765547 19.55444336 158.92700195 C5.18506201 153.56243292 -5.04052076 144.92772922 -12.84008789 131.75512695 C-17.40467531 121.58198322 -19.02691504 112.32098027 -18.83618164 101.2199707 C-18.83052185 99.95099442 -18.82486206 98.68201813 -18.81903076 97.37458801 C-18.80061434 94.0484867 -18.76487107 90.72354893 -18.72021484 87.39776611 C-18.67882791 83.98508597 -18.66092847 80.57228416 -18.64086914 77.15942383 C-18.59706141 70.49830378 -18.53034715 63.83771979 -18.44555664 57.17700195 C-13.05816706 56.97441209 -10.70520015 57.75076695 -6.44555664 61.17700195 C-1.81642801 66.30657692 -1.30792977 70.18854723 -1.26977539 76.88793945 C-1.24654105 78.4595669 -1.22242236 80.03118147 -1.19750977 81.6027832 C-1.16271163 84.06201339 -1.13322929 86.52078067 -1.11962891 88.98022461 C-1.01355995 105.04722386 1.19038891 118.29078833 12.65600586 130.39575195 C17.72679657 135.19777283 23.10171818 138.53025617 29.55444336 141.17700195 C30.41166992 141.54567383 31.26889648 141.9143457 32.15209961 142.29418945 C37.04631126 143.56409971 41.77029994 143.4663312 46.80444336 143.42700195 C47.80991211 143.43473633 48.81538086 143.4424707 49.85131836 143.45043945 C50.81038086 143.44786133 51.76944336 143.4452832 52.75756836 143.44262695 C53.63058594 143.44037109 54.50360352 143.43811523 55.40307617 143.43579102 C57.76710507 143.37607113 57.76710507 143.37607113 59.55444336 141.17700195 C60.02658009 137.11604238 60.02658009 137.11604238 59.55444336 133.17700195 C57.06404147 130.28239871 55.48938094 130.17199215 51.64819336 129.8762207 C50.11695939 129.86819852 48.58569834 129.86450195 47.05444336 129.86450195 C36.42170193 129.5399033 28.5562095 126.70975555 21.05444336 118.86450195 C12.813088 109.3760994 12.98354098 99.1720786 12.99194336 87.23950195 C12.96821874 71.55120285 12.44357754 60.06613614 0.80444336 48.42700195 C-7.26911374 42.83761627 -14.54819096 41.66804951 -24.20043945 41.67993164 C-27.8279231 41.62527735 -29.86368994 41.56007176 -32.94946289 39.52856445 C-35.93538423 34.83528862 -35.15189251 29.50830229 -34.44555664 24.17700195 C-33.24575134 20.4805805 -31.59129583 17.40702425 -29.44555664 14.17700195 C-29.02274414 13.52989258 -28.59993164 12.8827832 -28.16430664 12.21606445 C-21.28001065 3.05034479 -10.95899886 0.04313326 0 0 Z " fill="#9E6D4F" transform="translate(322.445556640625,62.822998046875)"/>
<path d="M0 0 C1.02743317 -0.0071553 2.05486633 -0.01431061 3.11343384 -0.02168274 C4.23505417 -0.02437164 5.3566745 -0.02706055 6.51228333 -0.02983093 C7.69809998 -0.03640213 8.88391663 -0.04297333 10.10566711 -0.04974365 C14.03392394 -0.06947033 17.96216738 -0.08114263 21.89045715 -0.09111023 C23.24611748 -0.09515991 24.6017776 -0.09927689 25.95743752 -0.10346031 C32.32889657 -0.1225025 38.70034413 -0.13673451 45.07182616 -0.14507228 C52.41040809 -0.15483581 59.74868768 -0.18113595 67.08716315 -0.22157317 C72.76971787 -0.25180391 78.45218627 -0.26654779 84.13481981 -0.26985329 C87.52387671 -0.27219622 90.91261028 -0.28105655 94.30158043 -0.30631447 C98.0882045 -0.3306903 101.87404213 -0.329743 105.66072083 -0.32279968 C106.77222 -0.33560974 107.88371918 -0.3484198 109.02890015 -0.36161804 C116.9921068 -0.30852794 123.31239858 1.07686154 129.46858215 6.33076477 C130.08862122 7.07455383 130.70866028 7.8183429 131.3474884 8.58467102 C132.30461731 9.69648743 132.30461731 9.69648743 133.28108215 10.83076477 C136.88288094 15.95274722 137.19236615 20.57308056 137.13703918 26.7011261 C137.13728025 27.56408893 137.13752132 28.42705175 137.1377697 29.31616497 C137.13628112 32.09978357 137.12106926 34.8831318 137.1053009 37.66670227 C137.10235906 39.38915376 137.10031949 41.11160703 137.09919739 42.83406067 C137.08872647 49.20929145 137.06080396 55.58448391 137.0349884 61.95967102 C136.9937384 76.21154602 136.9524884 90.46342102 136.9099884 105.14717102 C83.7799884 105.14717102 30.6499884 105.14717102 -24.0900116 105.14717102 C-24.2756366 83.67654602 -24.2756366 83.67654602 -24.4650116 61.77217102 C-24.51963562 57.26899231 -24.57425964 52.7658136 -24.63053894 48.12617493 C-24.65763855 42.58540344 -24.65763855 42.58540344 -24.66267395 39.98344421 C-24.67182847 38.18379287 -24.69280825 36.38417607 -24.72346497 34.58476257 C-25.04230191 14.86797983 -25.04230191 14.86797983 -18.0900116 7.14717102 C-15.6759491 4.89326477 -15.6759491 4.89326477 -13.4650116 3.58467102 C-12.73024597 3.12963196 -11.99548035 2.6745929 -11.2384491 2.20576477 C-7.49061832 0.35910633 -4.15181669 0.01989834 0 0 Z " fill="#9B959D" transform="translate(360.0900115966797,359.8528289794922)"/>
<path d="M0 0 C4.25713548 0.10045175 8.50973623 0.07199413 12.76766968 0.04560471 C36.68714966 -0.05857971 56.70418758 0.83970064 76.66607666 15.19970703 C77.48165039 15.73915955 78.29722412 16.27861206 79.13751221 16.83441162 C85.07234016 20.99095407 88.26225829 25.35804509 90.66607666 32.19970703 C91.27888917 36.26761573 91.25395584 40.22628652 91.15435791 44.33251953 C91.1437458 46.00929276 91.1437458 46.00929276 91.13291931 47.71994019 C91.10515241 51.255572 91.0424445 54.78956192 90.97857666 58.32470703 C90.95347104 60.73614233 90.93066187 63.14760271 90.91021729 65.55908203 C90.85538401 71.43984117 90.77193658 77.31965676 90.66607666 83.19970703 C89.73677054 83.20190687 89.73677054 83.20190687 88.78869057 83.20415115 C73.6802185 83.24128106 58.57200338 83.3003772 43.46372414 83.38360977 C36.15731079 83.42333735 28.85100418 83.45576157 21.54449463 83.47070312 C15.17253443 83.48375241 8.80080969 83.51079992 2.42898214 83.5543201 C-0.94165448 83.57686195 -4.31200151 83.59262214 -7.68272018 83.59159088 C-11.45532019 83.59396408 -15.22700843 83.62107532 -18.99945068 83.65380859 C-20.10428802 83.64877823 -21.20912537 83.64374786 -22.34744263 83.63856506 C-29.50940174 83.73435044 -34.8774245 85.17289451 -41.33392334 88.19970703 C-42.99703566 88.87519176 -44.66283717 89.54419712 -46.33392334 90.19970703 C-46.43189209 89.17232422 -46.52986084 88.14494141 -46.63079834 87.08642578 C-48.76506305 66.53728739 -56.78874707 54.2626709 -72.80657959 41.18017578 C-74.44124974 39.86674033 -76.08184663 38.5606451 -77.72845459 37.26220703 C-82.31170738 33.63408488 -86.8167931 29.90959347 -91.33392334 26.19970703 C-68.15932728 1.70153238 -31.23202153 -0.97768333 0 0 Z " fill="#C1DBFD" transform="translate(382.33392333984375,261.80029296875)"/>
<path d="M0 0 C4.08692718 1.24191896 7.79860708 2.8179408 11.60522461 4.71582031 C31.44073014 14.56729193 52.85032302 19.39052001 74.74145508 21.96166992 C76.07213013 22.12372925 76.07213013 22.12372925 77.4296875 22.2890625 C78.21585449 22.37881348 79.00202148 22.46856445 79.81201172 22.56103516 C83.95388164 23.39199723 85.63099428 24.44649142 88 28 C88.29052734 31.02416992 88.29052734 31.02416992 88.3359375 34.73046875 C88.34431641 35.39370148 88.35269531 36.0569342 88.36132812 36.74026489 C88.38090189 38.88958375 88.38090993 41.03810672 88.375 43.1875 C88.37445618 43.91552826 88.37391235 44.64355652 88.37335205 45.39364624 C88.30702253 64.57853172 85.07755452 80.31730067 71.41015625 94.71484375 C57.9161081 107.50903851 42.95370553 110.54396732 24.96484375 110.27734375 C10.3855792 109.72495314 -2.24320222 101.4138212 -12 91 C-23.20449849 76.48210896 -26.22178322 61.83530477 -25 44 C-22.70632219 26.30478801 -12.40376058 12.18615074 0 0 Z " fill="#FCDF9E" transform="translate(96,138)"/>
<path d="M0 0 C3.62884324 2.74974319 6.82678016 5.74058064 10 9 C10.76957031 9.74894531 11.53914062 10.49789062 12.33203125 11.26953125 C25.93828599 25.24665494 33.30579621 45.32698969 33.17578125 64.69921875 C33.15064453 66.14748047 33.15064453 66.14748047 33.125 67.625 C33.11597656 68.62917969 33.10695312 69.63335937 33.09765625 70.66796875 C33.07437746 73.11224126 33.04168487 75.55598408 33 78 C31.18596811 75.27895216 30.30603622 73.17268346 29.25 70.125 C26.74085416 63.7875618 23.92146342 61.30892356 17.6171875 58.484375 C11.88139108 56.39833295 5.90210591 55.91444906 -0.125 55.1875 C-22.67357082 52.20302202 -47.76471494 46.68118229 -66.25 32.5625 C-70.06261504 30.39624145 -71.79027897 30.86105362 -76 32 C-78.61528183 33.93191961 -80.68008017 36.24394526 -82.8125 38.6875 C-83.41779541 39.36304932 -84.02309082 40.03859863 -84.64672852 40.73461914 C-99.81492027 57.94155714 -107.26433848 74.35400223 -111 97 C-114.28375747 94.08110447 -115.79049372 91.65110438 -117.1875 87.5 C-117.51105469 86.5615625 -117.83460937 85.623125 -118.16796875 84.65625 C-118.44253906 83.7796875 -118.71710938 82.903125 -119 82 C-119.29970703 81.09314453 -119.29970703 81.09314453 -119.60546875 80.16796875 C-120.73345862 73.96960857 -120.13282344 67.28645528 -120 61 C-119.98324219 60.14535156 -119.96648437 59.29070312 -119.94921875 58.41015625 C-118.69965507 39.80950834 -107.81918825 23.66770597 -95 11 C-94.34386719 10.33355469 -93.68773438 9.66710937 -93.01171875 8.98046875 C-68.31718322 -14.44496859 -28.54742861 -17.92183483 0 0 Z " fill="#FCA75E" transform="translate(167,90)"/>
<path d="M0 0 C5.4746519 4.00010382 10.77515378 8.18505105 15.9921875 12.515625 C18.10606141 14.26162995 20.23014234 15.97568351 22.3828125 17.671875 C31.06369227 24.60992774 37.82651244 31.64307386 40 43 C40.27946025 47.0297801 40.25286073 51.0476828 40.22705078 55.08569336 C40.22734283 56.28640472 40.22763489 57.48711609 40.22793579 58.72421265 C40.22678547 61.99855634 40.21679084 65.27272661 40.20278788 68.54703593 C40.19024133 71.97564988 40.18910693 75.40426764 40.18673706 78.832901 C40.18053378 85.31736405 40.16413865 91.80175924 40.14403808 98.28619248 C40.12164312 105.67193627 40.11067662 113.05768339 40.10064721 120.44345272 C40.07977132 135.62901243 40.04310958 150.81448407 40 166 C26.47 166 12.94 166 -1 166 C-1.02254528 144.50394193 -1.04097815 123.00789339 -1.05181217 101.51182652 C-1.05697557 91.53156169 -1.0640191 81.55130471 -1.07543945 71.57104492 C-1.08538496 62.8755386 -1.09185311 54.18003795 -1.09408849 45.4845261 C-1.09539583 40.87736269 -1.09848312 36.27021554 -1.10573006 31.66305733 C-1.11248817 27.33181408 -1.11461739 23.00059388 -1.11310768 18.66934586 C-1.1133841 17.07494545 -1.11539047 15.48054432 -1.11920547 13.88614845 C-1.12413947 11.71883429 -1.1229994 9.55160857 -1.12025452 7.3842926 C-1.12117631 6.16844766 -1.1220981 4.95260271 -1.12304783 3.69991398 C-1 1 -1 1 0 0 Z " fill="#A2CAFC" transform="translate(281,299)"/>
<path d="M0 0 C2.03515625 -0.3203125 2.03515625 -0.3203125 5.72265625 0.6171875 C7.66080619 3.17243707 9.17007356 5.85621908 10.74609375 8.6484375 C15.50100948 15.79020816 23.51831935 20.41577536 31.72265625 22.6171875 C43.93081814 24.34151171 55.43589988 23.01554504 65.49609375 15.5625 C70.7246954 11.13122177 74.4477871 6.62111427 77.72265625 0.6171875 C86.15056695 1.15513925 92.27814585 4.74635117 98.03515625 10.8671875 C102.80037776 16.61208529 105.82432292 21.72218738 105.75976562 29.27539062 C105.75440796 30.08786255 105.74905029 30.90033447 105.74353027 31.73742676 C105.73664185 32.3577478 105.72975342 32.97806885 105.72265625 33.6171875 C104.89108253 33.62077003 104.89108253 33.62077003 104.04270935 33.62442493 C90.52889855 33.68366209 77.01526695 33.75945458 63.50164795 33.85290241 C56.96644325 33.89759689 50.43130076 33.93685534 43.89599609 33.96362305 C37.58703907 33.98966479 31.27832156 34.0300741 24.96951294 34.08037376 C22.5646564 34.09703644 20.15975844 34.10855443 17.75485229 34.11480141 C14.38188673 34.12444865 11.00953312 34.15251688 7.63671875 34.18481445 C6.15101631 34.18266182 6.15101631 34.18266182 4.63529968 34.1804657 C-2.30806655 34.2742629 -8.25287485 35.05359005 -13.73828125 39.703125 C-14.36992188 40.45851563 -15.0015625 41.21390625 -15.65234375 41.9921875 C-16.29945312 42.74242187 -16.9465625 43.49265625 -17.61328125 44.265625 C-21.11805723 49.21838355 -21.53073954 53.14722739 -21.46484375 59.1796875 C-21.45839844 60.48035156 -21.45195313 61.78101563 -21.4453125 63.12109375 C-21.31456838 65.84239585 -21.09558197 68.04464653 -20.27734375 70.6171875 C-17.63734375 70.9471875 -14.99734375 71.2771875 -12.27734375 71.6171875 C-13.26734375 72.1121875 -13.26734375 72.1121875 -14.27734375 72.6171875 C-14.27734375 78.2271875 -14.27734375 83.8371875 -14.27734375 89.6171875 C-16.75234375 90.6071875 -16.75234375 90.6071875 -19.27734375 91.6171875 C-21.45571976 93.38583855 -21.45571976 93.38583855 -21.52458191 95.60835266 C-21.52315689 96.42378036 -21.52173187 97.23920807 -21.52026367 98.0793457 C-21.5233403 99.00403152 -21.52641693 99.92871735 -21.52958679 100.88142395 C-21.52240128 101.88348373 -21.51521576 102.88554352 -21.5078125 103.91796875 C-21.50735428 104.9464946 -21.50689606 105.97502045 -21.50642395 107.03471375 C-21.50339852 109.21447907 -21.4955036 111.39424217 -21.4831543 113.57397461 C-21.46497565 116.9055145 -21.46264408 120.23677522 -21.46289062 123.56835938 C-21.45797238 125.68489823 -21.45214273 127.8014352 -21.4453125 129.91796875 C-21.44419968 130.91395584 -21.44308685 131.90994293 -21.44194031 132.93611145 C-21.43556046 133.87025375 -21.4291806 134.80439606 -21.42260742 135.7668457 C-21.41879562 136.58466019 -21.41498383 137.40247467 -21.41105652 138.24507141 C-21.30717373 141.07738654 -21.30717373 141.07738654 -20.27734375 145.6171875 C-29.18734375 145.6171875 -38.09734375 145.6171875 -47.27734375 145.6171875 C-47.36799735 133.06410495 -47.4412627 120.51124264 -47.48459244 107.95790577 C-47.5053968 102.12781853 -47.5335831 96.2979684 -47.57910156 90.46801758 C-47.62281515 84.83346438 -47.64653454 79.19913812 -47.65685272 73.56442833 C-47.6641985 71.42320882 -47.67854213 69.28200061 -47.70026398 67.14087868 C-47.89232296 47.41078841 -45.1064171 30.97732711 -30.953125 16.0390625 C-21.78619056 7.74198315 -11.85253277 3.21217869 0 0 Z " fill="#92D1A0" transform="translate(78.27734375,279.3828125)"/>
<path d="M0 0 C5.38738958 -0.20258986 7.74035649 0.573765 12 4 C16.62912863 9.12957497 17.13762687 13.01154528 17.17578125 19.7109375 C17.19901559 21.28256494 17.22313428 22.85417951 17.24804688 24.42578125 C17.28284501 26.88501143 17.31232735 29.34377871 17.32592773 31.80322266 C17.43199669 47.87022191 19.63594555 61.11378638 31.1015625 73.21875 C36.17235321 78.02077088 41.54727483 81.35325422 48 84 C48.85980469 84.36351562 49.71960938 84.72703125 50.60546875 85.1015625 C55.45247438 86.38442935 60.13035833 86.44749391 65.125 86.5 C66.11371094 86.54125 67.10242188 86.5825 68.12109375 86.625 C70.87819078 86.65484679 73.31268344 86.62483591 76 86 C77.39036974 84.03922216 78.7274772 82.0392311 80 80 C82.93419261 79.23085011 85.74249539 79.43048478 88.75 79.625 C89.54277344 79.65207031 90.33554687 79.67914063 91.15234375 79.70703125 C93.10273366 79.77752727 95.05171901 79.88514501 97 80 C97.309375 81.175625 97.309375 81.175625 97.625 82.375 C98.79296113 85.31262785 98.79296113 85.31262785 102.0859375 86.1640625 C103.04757812 86.43992187 104.00921875 86.71578125 105 87 C105.02505615 88.09989258 105.0501123 89.19978516 105.07592773 90.33300781 C105.17018206 94.41824765 105.27035865 98.50332461 105.37231445 102.58837891 C105.41559514 104.35559272 105.45727505 106.1228465 105.49731445 107.89013672 C105.55518351 110.4320886 105.61882981 112.97384059 105.68359375 115.515625 C105.70030624 116.30430969 105.71701874 117.09299438 105.73423767 117.90557861 C105.83040294 121.47571118 106.12848515 124.51394061 107 128 C87.53 128 68.06 128 48 128 C47.505 117.605 47.505 117.605 47 107 C43.842361 103.842361 42.13261876 103.16065352 38 101.75 C23.63061865 96.38543096 13.40503588 87.75072726 5.60546875 74.578125 C1.04088133 64.40498127 -0.5813584 55.14397832 -0.390625 44.04296875 C-0.38496521 42.77399246 -0.37930542 41.50501617 -0.37347412 40.19758606 C-0.3550577 36.87148475 -0.31931443 33.54654698 -0.2746582 30.22076416 C-0.23327127 26.80808402 -0.21537183 23.39528221 -0.1953125 19.98242188 C-0.15150477 13.32130183 -0.08479051 6.66071783 0 0 Z " fill="#F3B77C" transform="translate(304,120)"/>
<path d="M0 0 C1.08498779 0.01973877 2.16997559 0.03947754 3.2878418 0.05981445 C4.53174683 0.09788208 4.53174683 0.09788208 5.80078125 0.13671875 C5.80442688 0.90822266 5.80807251 1.67972656 5.81182861 2.47460938 C5.84981142 9.77160354 5.90677947 17.06809294 5.98468399 24.36476135 C6.02406963 28.11542422 6.05630128 31.86585545 6.07177734 35.61669922 C6.08700344 39.24151829 6.12155219 42.86570018 6.16909027 46.49023438 C6.18384324 47.86794472 6.19181875 49.24574608 6.1926651 50.62353516 C6.20362241 59.52290938 6.53279625 66.19082114 12.546875 73.16015625 C13.38412109 73.82917969 13.38412109 73.82917969 14.23828125 74.51171875 C14.79386719 74.97320312 15.34945312 75.4346875 15.921875 75.91015625 C19.91870396 78.51931278 23.48410603 79.38706489 28.22346497 79.41519165 C29.29893585 79.42635513 30.37440674 79.43751862 31.48246765 79.44902039 C32.65203506 79.45118057 33.82160248 79.45334076 35.02661133 79.45556641 C36.26604492 79.46561203 37.50547852 79.47565765 38.7824707 79.48600769 C42.17259884 79.51157126 45.56256017 79.52844359 48.95274568 79.54143572 C52.49887476 79.55708597 56.04491944 79.58387014 59.59098816 79.60946655 C66.30211565 79.65622085 73.01325909 79.69298113 79.72446603 79.72613943 C87.36656856 79.76438451 95.00858626 79.81378841 102.65061724 79.86412358 C118.36727722 79.96739361 134.08398481 80.05666998 149.80078125 80.13671875 C149.90920076 82.05213013 149.98656204 83.96931648 150.05078125 85.88671875 C150.0971875 86.9540625 150.14359375 88.02140625 150.19140625 89.12109375 C149.80078125 92.13671875 149.80078125 92.13671875 147.97265625 94.46484375 C144.33291005 97.26666277 141.30615063 97.26769857 136.85501099 97.2906189 C135.61281799 97.29921936 134.370625 97.30781982 133.09078979 97.31668091 C131.71173138 97.32111596 130.33267251 97.32541434 128.95361328 97.32958984 C127.50317184 97.33749228 126.05273235 97.34576132 124.60229492 97.35437012 C119.83774691 97.38056809 115.0731902 97.39589286 110.30859375 97.41015625 C108.66836415 97.41551634 107.02813461 97.42089385 105.38790512 97.4262886 C98.56629002 97.44791168 91.74467727 97.46664946 84.92303658 97.477911 C75.14535528 97.49415898 65.3680708 97.52736352 55.5905391 97.58431184 C48.71572267 97.62298996 41.84101248 97.64254098 34.96609008 97.64783156 C30.85945712 97.65148722 26.75324759 97.66353103 22.64673233 97.6959343 C18.78390974 97.7259789 14.92176761 97.73234016 11.05885315 97.72055054 C9.64187459 97.72032951 8.22486478 97.72865874 6.80799484 97.74620438 C-5.24304073 97.88730541 -5.24304073 97.88730541 -8.51834106 94.72525024 C-10.67857075 91.39852241 -11.3246122 89.73707951 -11.35693359 85.82641602 C-11.36719574 84.93531631 -11.37745789 84.04421661 -11.38803101 83.12611389 C-11.39533234 82.16152756 -11.40263367 81.19694122 -11.41015625 80.203125 C-11.43821882 78.1725179 -11.46688324 76.14191904 -11.49609375 74.11132812 C-11.53741729 70.90063656 -11.57429342 67.69009993 -11.60058594 64.47924805 C-11.62812217 61.38688148 -11.67398808 58.29522135 -11.72265625 55.203125 C-11.72590912 54.2405629 -11.72916199 53.27800079 -11.73251343 52.28627014 C-11.7490799 51.39201828 -11.76564636 50.49776642 -11.78271484 49.57641602 C-11.7908017 48.78969009 -11.79888855 48.00296417 -11.80722046 47.19239807 C-12.30190179 44.59823836 -13.13027236 43.73689067 -15.19921875 42.13671875 C-16.18921875 41.80671875 -17.17921875 41.47671875 -18.19921875 41.13671875 C-18.3340947 38.36426861 -18.43322682 35.59834787 -18.51171875 32.82421875 C-18.55361328 32.03853516 -18.59550781 31.25285156 -18.63867188 30.44335938 C-18.68564723 28.23551757 -18.6800028 26.29364122 -18.19921875 24.13671875 C-15.7421875 22.21875 -15.7421875 22.21875 -13.19921875 21.13671875 C-11.81951337 18.37730798 -12.04761868 15.96523086 -11.94921875 12.88671875 C-11.35581486 5.33962424 -11.35581486 5.33962424 -9.38671875 2.32421875 C-5.70974416 -0.19919518 -4.34857393 -0.10249164 0 0 Z " fill="#D8D6D9" transform="translate(82.19921875,327.86328125)"/>
<path d="M0 0 C2.03515625 -0.3203125 2.03515625 -0.3203125 5.72265625 0.6171875 C7.82006897 3.18849263 9.40957094 5.80360258 10.984375 8.72265625 C12.87297731 11.8674974 15.0478334 14.12463537 17.72265625 16.6171875 C16.7790625 16.64296875 15.83546875 16.66875 14.86328125 16.6953125 C0.27579895 17.33973943 -10.8680768 20.53822102 -21.02734375 31.4921875 C-26.03398389 37.4590052 -29.36409431 43.8988205 -29.43556213 51.78070068 C-29.45024536 53.01320808 -29.45024536 53.01320808 -29.46522522 54.27061462 C-29.47098068 55.16325516 -29.47673615 56.05589569 -29.48266602 56.97558594 C-29.49751541 58.39560661 -29.49751541 58.39560661 -29.51266479 59.84431458 C-29.54423829 62.97170516 -29.56902089 66.09911093 -29.59375 69.2265625 C-29.6143231 71.39561354 -29.63531967 73.56466061 -29.65672302 75.73370361 C-29.71190685 81.44155658 -29.76133244 87.14944551 -29.80957031 92.85736084 C-29.85981223 98.68228352 -29.91548426 104.507154 -29.97070312 110.33203125 C-30.0782396 121.76037207 -30.17969463 133.18875822 -30.27734375 144.6171875 C-26.97734375 144.2871875 -23.67734375 143.9571875 -20.27734375 143.6171875 C-20.27734375 144.2771875 -20.27734375 144.9371875 -20.27734375 145.6171875 C-29.18734375 145.6171875 -38.09734375 145.6171875 -47.27734375 145.6171875 C-47.36799735 133.06410495 -47.4412627 120.51124264 -47.48459244 107.95790577 C-47.5053968 102.12781853 -47.5335831 96.2979684 -47.57910156 90.46801758 C-47.62281515 84.83346438 -47.64653454 79.19913812 -47.65685272 73.56442833 C-47.6641985 71.42320882 -47.67854213 69.28200061 -47.70026398 67.14087868 C-47.89232296 47.41078841 -45.1064171 30.97732711 -30.953125 16.0390625 C-21.78619056 7.74198315 -11.85253277 3.21217869 0 0 Z " fill="#77C0A2" transform="translate(78.27734375,279.3828125)"/>
<path d="M0 0 C2.95368398 2.10232801 5.53547128 4.34412588 8 7 C5.30252636 9.69747364 2.09673809 10.7038347 -1.375 12.125 C-13.20852804 17.15710103 -22.71514782 24.13718655 -32 33 C-32.61359375 33.53882813 -33.2271875 34.07765625 -33.859375 34.6328125 C-41.7184728 41.80694306 -46.81642548 51.82636022 -52 61 C-60.39938936 51.70067607 -61.73874777 40.97441094 -61.17919922 28.93994141 C-60.76871218 24.49616755 -59.1657713 20.84727076 -57 17 C-56.56429687 16.22140625 -56.12859375 15.4428125 -55.6796875 14.640625 C-49.54924172 4.6577133 -41.19647003 -1.09585157 -30.0703125 -4.609375 C-19.49745364 -6.60425403 -9.54465248 -4.77232624 0 0 Z " fill="#FBBF67" transform="translate(92,60)"/>
<path d="M0 0 C5.38738958 -0.20258986 7.74035649 0.573765 12 4 C16.62912863 9.12957497 17.13762687 13.01154528 17.17578125 19.7109375 C17.19901559 21.28256494 17.22313428 22.85417951 17.24804688 24.42578125 C17.28284501 26.88501143 17.31232735 29.34377871 17.32592773 31.80322266 C17.42283521 46.48246816 18.92594351 59.4924033 29 71 C31.25913178 73.20274746 33.56562912 75.2831055 35.984375 77.30859375 C36.64953125 77.86675781 37.3146875 78.42492187 38 79 C38.5350415 79.4336084 39.07008301 79.8672168 39.62133789 80.31396484 C41.46709645 82.57123571 41.2756885 83.79244592 41.07421875 86.66796875 C41.01943359 87.56064453 40.96464844 88.45332031 40.90820312 89.37304688 C40.79895508 90.76620117 40.79895508 90.76620117 40.6875 92.1875 C40.62626953 93.12787109 40.56503906 94.06824219 40.50195312 95.03710938 C40.34870489 97.35940957 40.1808714 99.67971458 40 102 C24.6444932 97.27425409 13.79400618 88.40765488 5.60546875 74.578125 C1.04088133 64.40498127 -0.5813584 55.14397832 -0.390625 44.04296875 C-0.38496521 42.77399246 -0.37930542 41.50501617 -0.37347412 40.19758606 C-0.3550577 36.87148475 -0.31931443 33.54654698 -0.2746582 30.22076416 C-0.23327127 26.80808402 -0.21537183 23.39528221 -0.1953125 19.98242188 C-0.15150477 13.32130183 -0.08479051 6.66071783 0 0 Z " fill="#DFA773" transform="translate(304,120)"/>
<path d="M0 0 C5.66315154 2.52482173 10.10017827 6.96184846 12.625 12.625 C14.54750642 18.91573304 15.00476962 25.56958725 12.5859375 31.75390625 C8.9344547 38.30509598 4.82980941 41.58645953 -1.625 45.25 C-9.15952312 47.17743615 -15.2738647 46.26505578 -22.05078125 42.48828125 C-27.72752117 38.59593971 -31.30126974 33.52986585 -33.3125 26.9375 C-34.46939168 19.32772364 -32.8019217 13.18177958 -28.3125 6.9375 C-25.83890786 4.56677011 -23.26193597 2.67315218 -20.3125 0.9375 C-19.68988281 0.56238281 -19.06726563 0.18726563 -18.42578125 -0.19921875 C-12.94070535 -2.43988746 -5.57696155 -1.76803869 0 0 Z " fill="#040404" transform="translate(161.3125,354.0625)"/>
<path d="M0 0 C1.85625 0.0309375 1.85625 0.0309375 3.75 0.0625 C3.16992188 0.75472656 3.16992188 0.75472656 2.578125 1.4609375 C2.05734375 2.11320312 1.5365625 2.76546875 1 3.4375 C0.48953125 4.06398438 -0.0209375 4.69046875 -0.546875 5.3359375 C-7.10439707 15.83398889 -6.85398523 25.84231842 -6.859375 37.8515625 C-6.87437475 39.76542549 -6.89110564 41.67927561 -6.90948486 43.59310913 C-6.95296912 48.60057202 -6.97311533 53.60786034 -6.98822021 58.61547852 C-7.00785983 63.73724611 -7.04982196 68.85882705 -7.08984375 73.98046875 C-7.16494089 84.00778627 -7.21328998 94.0349684 -7.25 104.0625 C-12.53 104.0625 -17.81 104.0625 -23.25 104.0625 C-23.38587909 92.89184488 -23.49581835 81.72174401 -23.56087303 70.55044746 C-23.5921056 65.36241936 -23.63443027 60.1749889 -23.70263672 54.98730469 C-23.76811804 49.97517956 -23.8037667 44.96362709 -23.81926346 39.95110703 C-23.83029835 38.04459501 -23.85184695 36.13811221 -23.88438034 34.23184586 C-24.20234327 14.81836682 -24.20234327 14.81836682 -17.25 7.0625 C-14.8359375 4.80859375 -14.8359375 4.80859375 -12.625 3.5 C-11.89023437 3.04496094 -11.15546875 2.58992188 -10.3984375 2.12109375 C-6.88614662 0.39049224 -3.89161972 -0.06486033 0 0 Z " fill="#847D86" transform="translate(359.25,359.9375)"/>
<path d="M0 0 C0 17.16 0 34.32 0 52 C-2.64 50.02 -5.28 48.04 -8 46 C-15.31535647 42.13331158 -21.61363755 41.4935 -29.75537109 41.50268555 C-33.38270933 41.44841213 -35.41827648 41.38297555 -38.50390625 39.3515625 C-41.48982759 34.65828666 -40.70633587 29.33130034 -40 24 C-38.80019469 20.30357855 -37.14573919 17.2300223 -35 14 C-34.5771875 13.35289063 -34.154375 12.70578125 -33.71875 12.0390625 C-25.25662948 0.77263459 -13.22304922 0 0 0 Z " fill="#765252" transform="translate(328,63)"/>
<path d="M0 0 C3.51211488 1.17070496 3.97849292 2.05064354 6.0625 5 C10.09340759 10.38896015 14.89180638 14.6523825 20 19 C16.67339575 23.71945075 13.10369295 28.00004847 9.125 32.1875 C-4.53270772 47.05694419 -9.61074905 63.62463832 -13 83 C-16.28375747 80.08110447 -17.79049372 77.65110438 -19.1875 73.5 C-19.51105469 72.5615625 -19.83460937 71.623125 -20.16796875 70.65625 C-20.44253906 69.7796875 -20.71710937 68.903125 -21 68 C-21.29970703 67.09314453 -21.29970703 67.09314453 -21.60546875 66.16796875 C-22.73345862 59.96960857 -22.13282344 53.28645528 -22 47 C-21.98324219 46.14535156 -21.96648438 45.29070312 -21.94921875 44.41015625 C-20.83711854 27.85575032 -11.4524672 11.51338458 0 0 Z " fill="#FB8958" transform="translate(69,104)"/>
<path d="M0 0 C0.33 0 0.66 0 1 0 C1.00142502 0.63876572 1.00285004 1.27753143 1.00431824 1.93565369 C1.02422302 8.67000607 1.07893301 15.40347712 1.15258789 22.13745117 C1.17558241 24.64031621 1.19011935 27.14327547 1.19555664 29.64624023 C1.25537398 52.66671357 3.25973485 71.10392906 19.4765625 88.59375 C23.63118653 92.55543484 28.23704148 95.81282402 33 99 C27.43781884 101.01662018 22.19160918 98.12033543 17 96 C0.56680731 88.02506826 -8.93061016 74.87892297 -15 58 C-19.32618627 42.90007665 -15.56615932 25.48606366 -8.5625 11.9375 C-6.05621951 7.56094137 -3.51594228 3.61935235 0 0 Z " fill="#F3CF8F" transform="translate(87,148)"/>
<path d="M0 0 C0.53367187 0.18175781 1.06734375 0.36351562 1.6171875 0.55078125 C2.36226563 0.80214844 3.10734375 1.05351562 3.875 1.3125 C4.59429687 1.55613281 5.31359375 1.79976563 6.0546875 2.05078125 C7.02664062 2.36402344 7.99859375 2.67726563 9 3 C9.66080566 3.25354248 10.32161133 3.50708496 11.00244141 3.76831055 C18.79926829 6.51711886 26.47523526 6.34157998 34.625 6.1875 C36.02472508 6.17241606 37.424466 6.15873425 38.82421875 6.14648438 C42.21655844 6.11139121 45.60806775 6.06222265 49 6 C49.33393031 14.3077814 48.08295802 19.55622243 42.3203125 25.828125 C35.78799234 31.80882701 29.07785081 32.52091643 20.4140625 32.375 C13.82439822 31.65119248 10.06849605 28.3470955 5.6875 23.625 C-0.3600459 15.9131431 -0.38969031 9.59792808 0 0 Z " fill="#E7B980" transform="translate(95,256)"/>
<path d="M0 0 C1.093125 0.33 2.18625 0.66 3.3125 1 C10.66913504 2.99501967 16.77344901 2.14120029 24 0 C27.96575582 -0.5247692 31.04488261 -0.58238866 34.5625 1.5625 C36 4 36 4 36.0625 7.5 C34.73862472 11.86100092 33.99460901 12.80688133 30 15 C18.17029271 19.15832135 7.7261399 18.91109313 -4.1875 15.36328125 C-7.53535545 13.74050132 -9.03271528 12.13817467 -11 9 C-10.9375 5.3125 -10.9375 5.3125 -10 2 C-6.25405125 -0.49729916 -4.44844343 -0.2965629 0 0 Z " fill="#050403" transform="translate(123,209)"/>
<path d="M0 0 C3.01100084 0.78598102 4.1798709 2.05617702 6.03515625 4.53125 C6.56640625 7.58984375 6.56640625 7.58984375 6.53515625 10.96875 C6.54546875 12.08121094 6.55578125 13.19367188 6.56640625 14.33984375 C5.92934495 18.16689583 4.79733633 19.84305689 2.03515625 22.53125 C-1.46484375 23.15625 -1.46484375 23.15625 -4.96484375 22.53125 C-7.73734859 19.83781838 -8.86305896 18.18603874 -9.4609375 14.33984375 C-9.44160156 13.22738281 -9.42226562 12.11492187 -9.40234375 10.96875 C-9.40105469 9.85371094 -9.39976563 8.73867187 -9.3984375 7.58984375 C-8.51687446 1.37125043 -6.1481596 0.09476932 0 0 Z " fill="#040302" transform="translate(112.96484375,168.46875)"/>
<path d="M0 0 C2.95849485 2.20302206 3.89387505 3.38900122 4.53125 7.05859375 C4.5209375 8.17363281 4.510625 9.28867188 4.5 10.4375 C4.5103125 11.54996094 4.520625 12.66242188 4.53125 13.80859375 C3.8941887 17.63564583 2.76218008 19.31180689 0 22 C-3.5 22.625 -3.5 22.625 -7 22 C-9.76218008 19.31180689 -10.8941887 17.63564583 -11.53125 13.80859375 C-11.5209375 12.69613281 -11.510625 11.58367187 -11.5 10.4375 C-11.5103125 9.32246094 -11.520625 8.20742187 -11.53125 7.05859375 C-10.37432265 0.39775464 -6.25195301 -0.89313614 0 0 Z " fill="#030302" transform="translate(163,169)"/>
<path d="M0 0 C0.8206897 0.17390259 0.8206897 0.17390259 1.65795898 0.35131836 C13.80182469 2.88863435 25.59204438 4.6747587 38 5 C36.6406278 8.30133249 35.48041604 9.71980293 32.25 11.25 C25.51039199 13.98286205 17.37319814 14.66728179 10.5 12.046875 C8.47738699 10.83637176 6.76401117 9.55998096 5 8 C4.01 7.13375 3.02 6.2675 2 5.375 C0 3 0 3 0 0 Z " fill="#F3CE8E" transform="translate(99,275)"/>
<path d="M0 0 C4.12071155 0.73584135 5.82805171 1.38627481 8.5 4.625 C9.15466318 7.42741781 9.11113838 9.81722271 8.5 12.625 C6.36398066 15.95719018 4.8672811 16.51815459 1.0625 17.625 C-2.5 17.625 -2.5 17.625 -5.375 16.125 C-8.17946009 12.82563519 -8.64905149 10.94749312 -8.5 6.625 C-6.0768816 2.46026525 -4.80003453 0.85714902 0 0 Z " fill="#F5F5F5" transform="translate(151.5,367.375)"/>
</svg>
